<?xml version="1.0" encoding="UTF-8"?>
<svg xmlns="http://www.w3.org/2000/svg" viewBox="0 0 446.51 119.38">
  <path d="m4.75,54.75h18l8-36,10,72,8-36,9,24,11-46,14,52L128.75,4.75"
        fill="none" stroke="#e8573a" stroke-linecap="round" stroke-linejoin="round" stroke-width="9.5"/>
  <g transform="translate(144.75 84.75)" fill="#ffffff">
    <path d="M15.48,-20.34L15.48,0.00L5.80,0.00L5.80,-52.06L21.67,-52.06Q26.97,-52.06 30.77,-50.96Q34.56,-49.86 36.99,-47.88Q39.42,-45.91 40.57,-43.15Q41.72,-40.39 41.72,-37.08Q41.72,-34.45 40.95,-32.11Q40.17,-29.77 38.72,-27.86Q37.27,-25.95 35.12,-24.52Q32.97,-23.08 30.23,-22.22Q32.08,-21.17 33.41,-19.22L46.44,0.00L37.69,0.00Q35.20,0.00 34.09,-1.94L23.14,-18.61Q22.53,-19.55 21.80,-19.95Q21.06,-20.34 19.62,-20.34Z M15.48,-27.28L21.53,-27.28Q24.27,-27.28 26.30,-27.97Q28.33,-28.66 29.64,-29.86Q30.95,-31.06 31.60,-32.72Q32.25,-34.38 32.25,-36.36Q32.25,-40.31 29.64,-42.44Q27.03,-44.56 21.67,-44.56L15.48,-44.56Z M63.54,-37.52Q67.03,-37.52 69.98,-36.40Q72.93,-35.28 75.06,-33.14Q77.18,-31.00 78.39,-27.88Q79.60,-24.77 79.60,-20.77Q79.60,-18.75 79.17,-18.05Q78.73,-17.36 77.51,-17.36L54.65,-17.36Q54.87,-14.52 55.66,-12.45Q56.45,-10.38 57.74,-9.02Q59.04,-7.67 60.82,-7.01Q62.60,-6.34 64.76,-6.34Q66.93,-6.34 68.50,-6.84Q70.06,-7.34 71.23,-7.95Q72.40,-8.56 73.28,-9.07Q74.17,-9.58 75.00,-9.58Q76.10,-9.58 76.65,-8.75L79.20,-5.52Q77.73,-3.78 75.89,-2.61Q74.06,-1.44 72.06,-0.73Q70.06,-0.03 67.99,0.26Q65.92,0.55 63.98,0.55Q60.12,0.55 56.81,-0.73Q53.49,-2.02 51.05,-4.52Q48.60,-7.02 47.20,-10.71Q45.79,-14.41 45.79,-19.27Q45.79,-23.05 47.02,-26.38Q48.24,-29.70 50.53,-32.16Q52.81,-34.62 56.10,-36.07Q59.40,-37.52 63.54,-37.52Z M63.71,-31.14Q59.84,-31.14 57.64,-28.95Q55.45,-26.75 54.82,-22.72L71.60,-22.72Q71.60,-24.44 71.12,-25.97Q70.64,-27.50 69.66,-28.66Q68.68,-29.81 67.19,-30.48Q65.70,-31.14 63.71,-31.14Z M92.38,-53.50L92.38,0.00L83.49,0.00L83.49,-53.50Z M107.61,-36.94L107.61,0.00L98.69,0.00L98.69,-36.94Z M108.83,-47.70Q108.83,-46.55 108.36,-45.54Q107.89,-44.53 107.12,-43.77Q106.34,-43.02 105.31,-42.57Q104.27,-42.12 103.08,-42.12Q101.92,-42.12 100.90,-42.57Q99.88,-43.02 99.12,-43.77Q98.36,-44.53 97.91,-45.54Q97.45,-46.55 97.45,-47.70Q97.45,-48.89 97.91,-49.93Q98.36,-50.97 99.12,-51.73Q99.88,-52.48 100.90,-52.94Q101.92,-53.39 103.08,-53.39Q104.27,-53.39 105.31,-52.94Q106.34,-52.48 107.12,-51.73Q107.89,-50.97 108.36,-49.93Q108.83,-48.89 108.83,-47.70Z M150.95,-12.28Q151.75,-12.28 152.36,-11.66L156.17,-7.53Q153.00,-3.59 148.37,-1.51Q143.75,0.58 137.26,0.58Q131.46,0.58 126.84,-1.41Q122.21,-3.39 118.94,-6.91Q115.67,-10.44 113.92,-15.34Q112.17,-20.23 112.17,-26.03Q112.17,-31.89 114.04,-36.77Q115.92,-41.66 119.32,-45.18Q122.71,-48.70 127.43,-50.66Q132.15,-52.62 137.87,-52.62Q143.56,-52.62 147.97,-50.76Q152.39,-48.89 155.48,-45.86L152.25,-41.36Q151.95,-40.94 151.50,-40.61Q151.06,-40.28 150.26,-40.28Q149.71,-40.28 149.14,-40.59Q148.57,-40.89 147.89,-41.34Q147.20,-41.80 146.30,-42.34Q145.40,-42.88 144.21,-43.33Q143.03,-43.78 141.46,-44.09Q139.89,-44.39 137.84,-44.39Q134.36,-44.39 131.46,-43.15Q128.56,-41.91 126.46,-39.55Q124.37,-37.19 123.22,-33.79Q122.07,-30.39 122.07,-26.03Q122.07,-21.64 123.32,-18.22Q124.56,-14.80 126.68,-12.45Q128.81,-10.11 131.68,-8.87Q134.56,-7.62 137.87,-7.62Q139.86,-7.62 141.46,-7.84Q143.06,-8.06 144.41,-8.53Q145.76,-9.00 146.96,-9.73Q148.17,-10.47 149.36,-11.56Q149.71,-11.88 150.11,-12.08Q150.51,-12.28 150.95,-12.28Z M158.54,0.00L158.54,-53.50L167.43,-53.50L167.43,-32.94Q169.58,-34.98 172.18,-36.25Q174.77,-37.52 178.27,-37.52Q181.29,-37.52 183.63,-36.48Q185.97,-35.45 187.54,-33.60Q189.10,-31.75 189.91,-29.18Q190.72,-26.61 190.72,-23.52L190.72,0.00L181.83,0.00L181.83,-23.52Q181.83,-26.89 180.29,-28.74Q178.74,-30.59 175.57,-30.59Q173.26,-30.59 171.24,-29.55Q169.22,-28.52 167.43,-26.72L167.43,0.00Z M212.00,-37.52Q215.49,-37.52 218.44,-36.40Q221.39,-35.28 223.52,-33.14Q225.64,-31.00 226.85,-27.88Q228.06,-24.77 228.06,-20.77Q228.06,-18.75 227.63,-18.05Q227.19,-17.36 225.97,-17.36L203.11,-17.36Q203.33,-14.52 204.12,-12.45Q204.91,-10.38 206.20,-9.02Q207.50,-7.67 209.28,-7.01Q211.06,-6.34 213.22,-6.34Q215.39,-6.34 216.95,-6.84Q218.52,-7.34 219.69,-7.95Q220.86,-8.56 221.74,-9.07Q222.63,-9.58 223.45,-9.58Q224.56,-9.58 225.11,-8.75L227.66,-5.52Q226.19,-3.78 224.35,-2.61Q222.52,-1.44 220.52,-0.73Q218.52,-0.03 216.45,0.26Q214.38,0.55 212.44,0.55Q208.58,0.55 205.27,-0.73Q201.95,-2.02 199.51,-4.52Q197.06,-7.02 195.66,-10.71Q194.25,-14.41 194.25,-19.27Q194.25,-23.05 195.48,-26.38Q196.70,-29.70 198.99,-32.16Q201.27,-34.62 204.56,-36.07Q207.86,-37.52 212.00,-37.52Z M212.17,-31.14Q208.30,-31.14 206.10,-28.95Q203.91,-26.75 203.28,-22.72L220.06,-22.72Q220.06,-24.44 219.58,-25.97Q219.09,-27.50 218.12,-28.66Q217.14,-29.81 215.65,-30.48Q214.16,-31.14 212.17,-31.14Z M258.31,-29.12Q257.90,-28.62 257.53,-28.34Q257.15,-28.05 256.43,-28.05Q255.75,-28.05 255.10,-28.46Q254.45,-28.88 253.55,-29.40Q252.65,-29.92 251.41,-30.34Q250.17,-30.75 248.32,-30.75Q246.00,-30.75 244.23,-29.90Q242.47,-29.05 241.29,-27.47Q240.12,-25.89 239.54,-23.64Q238.97,-21.39 238.97,-18.55Q238.97,-15.59 239.60,-13.29Q240.23,-10.98 241.42,-9.41Q242.61,-7.84 244.30,-7.04Q246.00,-6.23 248.11,-6.23Q250.23,-6.23 251.55,-6.75Q252.87,-7.27 253.77,-7.90Q254.67,-8.53 255.33,-9.05Q256.00,-9.58 256.82,-9.58Q257.90,-9.58 258.45,-8.75L261.00,-5.52Q259.53,-3.78 257.80,-2.61Q256.07,-1.44 254.22,-0.73Q252.36,-0.03 250.39,0.26Q248.43,0.55 246.50,0.55Q243.07,0.55 240.05,-0.73Q237.03,-2.02 234.76,-4.46Q232.50,-6.91 231.18,-10.45Q229.86,-14.00 229.86,-18.55Q229.86,-22.61 231.03,-26.09Q232.20,-29.56 234.47,-32.09Q236.73,-34.62 240.08,-36.07Q243.43,-37.52 247.79,-37.52Q251.93,-37.52 255.04,-36.18Q258.15,-34.84 260.64,-32.36Z M272.55,-53.50L272.55,-22.86L274.21,-22.86Q275.12,-22.86 275.64,-23.09Q276.16,-23.33 276.69,-24.05L285.88,-35.39Q286.46,-36.14 287.16,-36.54Q287.85,-36.94 288.98,-36.94L297.12,-36.94L285.63,-23.22Q284.40,-21.59 282.96,-20.73Q283.71,-20.20 284.30,-19.48Q284.90,-18.75 285.44,-17.92L297.76,0.00L289.73,0.00Q288.68,0.00 287.93,-0.34Q287.18,-0.69 286.66,-1.58L277.24,-15.59Q276.73,-16.42 276.19,-16.67Q275.65,-16.92 274.57,-16.92L272.55,-16.92L272.55,0.00L263.66,0.00L263.66,-53.50Z"/>
  </g>
</svg>
